<?xml version="1.0" encoding="UTF-8" standalone="no"?>
<!-- Created with Inkscape (http://www.inkscape.org/) -->

<svg
   xmlns:dc="http://purl.org/dc/elements/1.1/"
   xmlns:cc="http://creativecommons.org/ns#"
   xmlns:rdf="http://www.w3.org/1999/02/22-rdf-syntax-ns#"
   xmlns:svg="http://www.w3.org/2000/svg"
   xmlns="http://www.w3.org/2000/svg"
   xmlns:sodipodi="http://sodipodi.sourceforge.net/DTD/sodipodi-0.dtd"
   xmlns:inkscape="http://www.inkscape.org/namespaces/inkscape"
   width="150mm"
   height="150mm"
   viewBox="0 0 210 297"
   version="1.1"
   id="svg8"
   inkscape:export-filename="/home/jay/Code/OnionArch/onionArch.png"
   inkscape:export-xdpi="406.20999"
   inkscape:export-ydpi="406.20999"
   inkscape:version="0.92.3 (unknown)"
   sodipodi:docname="logo.svg">
  <defs
     id="defs2" />
  <sodipodi:namedview
     id="base"
     pagecolor="#ffffff"
     bordercolor="#666666"
     borderopacity="1.0"
     inkscape:pageopacity="0.0"
     inkscape:pageshadow="2"
     inkscape:zoom="0.7"
     inkscape:cx="-68.437781"
     inkscape:cy="348.78883"
     inkscape:document-units="mm"
     inkscape:current-layer="layer1"
     showgrid="false"
     inkscape:window-width="1920"
     inkscape:window-height="1001"
     inkscape:window-x="0"
     inkscape:window-y="27"
     inkscape:window-maximized="1" />
  <metadata
     id="metadata5">
    <rdf:RDF>
      <cc:Work
         rdf:about="">
        <dc:format>image/svg+xml</dc:format>
        <dc:type
           rdf:resource="http://purl.org/dc/dcmitype/StillImage" />
        <dc:title />
      </cc:Work>
    </rdf:RDF>
  </metadata>
  <g
     inkscape:label="Layer 1"
     inkscape:groupmode="layer"
     id="layer1">
    <path
       style="fill:#f0ba02;stroke-width:0.68067837"
       d="m 99.47139,285.20764 c -18.497046,-2.51891 -33.987908,-13.63733 -42.162353,-30.26161 -4.223502,-8.58931 -5.642983,-14.78989 -5.609719,-24.50442 0.03215,-9.37781 1.64325,-16.00781 6.037424,-24.84476 2.754067,-5.53856 4.196547,-7.44755 10.052683,-13.30365 5.856136,-5.85613 7.765109,-7.29862 13.303652,-10.05268 9.131,-4.54038 15.431328,-6.02834 25.525443,-6.02834 10.03769,0 16.44351,1.49852 25.1851,5.89153 10.78151,5.41814 18.68714,13.45255 24.12127,24.51417 4.41538,8.98783 5.67735,14.35894 5.67735,24.16407 0,9.75918 -1.25343,15.11306 -5.65714,24.16408 -5.33037,10.95554 -13.33442,19.08317 -24.14148,24.51417 -9.99042,5.02058 -21.99695,7.1549 -32.33223,5.74744 z m -24.434854,-6.4665 c -36.71784,-17.22389 -53.369399,-59.52958 -38.423349,-97.62 7.236817,-18.44328 23.456608,-34.69684 41.84388,-41.93109 28.322203,-11.143 60.123773,-4.58865 81.512213,16.79979 14.65863,14.65864 22.02771,32.62028 22.02771,53.69108 0,9.91741 -1.02918,16.32269 -4.04674,25.18509 -6.44997,18.94335 -21.34504,35.34006 -39.88506,43.90605 -2.83324,1.30904 -5.38695,2.38009 -5.67493,2.38009 -0.28798,0 1.80947,-1.53165 4.66101,-3.40365 16.39269,-10.76166 25.67559,-27.66747 25.71141,-46.8251 0.0471,-25.16221 -15.83488,-46.16565 -40.84721,-54.0195 -4.4064,-1.38361 -6.45242,-1.59493 -15.29695,-1.57991 -8.737205,0.0154 -10.946662,0.2457 -15.315275,1.6001 -14.242685,4.41577 -25.997404,13.55585 -33.373345,25.95005 -8.459751,14.21534 -9.818698,33.30722 -3.479553,48.88431 4.099016,10.07246 12.140839,19.69129 21.721077,25.98062 6.092178,3.99946 5.801695,4.25593 -1.134888,1.00207 z m -2.792277,0.75266 C 66.654888,277.42489 56.97874,272.20233 50.959118,268.00541 30.611186,253.81869 15.854457,230.5902 11.237386,205.47969 c -1.5716015,-8.54737 -1.5716015,-24.57138 0,-33.11877 7.399435,-40.24293 38.578808,-71.42228 78.821758,-78.821744 8.547364,-1.571601 24.571366,-1.571601 33.118776,0 25.11052,4.617078 48.33902,19.373804 62.52573,39.721724 20.24121,29.03193 23.3284,65.11734 8.31399,97.18079 -9.64701,20.60131 -26.25447,36.92785 -47.2391,46.44015 -8.66674,3.92861 -10.51528,4.21193 -3.90028,0.59776 20.8936,-11.41538 35.55129,-31.98562 39.31144,-55.16873 4.00023,-24.66331 -3.95881,-49.42067 -21.53976,-67.00164 -14.42278,-14.42279 -33.76151,-22.5414 -53.69107,-22.54011 -52.280817,0.002 -88.946584,50.58983 -73.098874,100.85197 5.814533,18.44113 19.698031,34.90496 37.328657,44.26633 4.912898,2.60859 5.282406,3.1709 1.055606,1.60638 z m -7.487464,-1.36845 C 50.018688,272.62641 34.548744,262.43079 22.741859,250.43502 -22.417179,204.55352 -22.566391,131.99606 22.404199,86.221551 54.04194,54.018216 100.10089,42.67667 143.1527,56.488467 c 30.29576,9.71942 56.08795,32.407738 70.07413,61.641283 16.92712,35.38059 14.62569,77.4721 -6.08504,111.2909 -11.8782,19.39608 -30.15236,35.67216 -50.84328,45.28415 -6.59805,3.06514 -11.2571,4.72245 -7.47794,2.66004 11.96405,-6.52914 19.44771,-11.91659 26.88682,-19.3557 28.46902,-28.46902 36.55951,-71.10046 20.51402,-108.09518 -15.35062,-35.39265 -50.90153,-58.670994 -89.60289,-58.670994 -53.756547,0 -97.6773458,43.920814 -97.6773458,97.677354 0,25.40162 10.1635578,50.29226 27.8927978,68.3097 8.024046,8.15451 19.013372,16.05461 28.028249,20.1492 3.890633,1.76715 3.827547,2.21361 -0.105541,0.74613 z m -14.522906,-4.43932 c -36.351337,-16.39638 -64.777341,-48.77604 -76.007935,-86.57966 -7.646135,-25.73787 -7.641381,-54.37389 0.01338,-80.14052 13.676814,-46.037875 51.800265,-82.524097 98.518783,-94.28784 21.537906,-5.4232596 46.183033,-5.4232596 67.720943,0 45.35945,11.42153 82.32727,45.734975 97.19761,90.21858 12.74412,38.12313 8.37314,80.12785 -11.92737,114.62138 -12.41514,21.0951 -32.08554,40.0828 -53.44523,51.59025 -5.45992,2.9415 -16.60676,7.97705 -17.5878,7.94521 -0.2475,-0.008 2.61288,-1.6333 6.35659,-3.61175 12.41756,-6.5622 20.38814,-12.37415 29.59113,-21.57713 16.81417,-16.81418 28.067,-37.85668 32.83953,-61.40914 1.33044,-6.56572 1.55243,-9.75408 1.55243,-22.29588 0,-12.54182 -0.22202,-15.73018 -1.55243,-22.29592 -4.77866,-23.58269 -15.96047,-44.4565 -32.87631,-61.372341 C 157.98409,51.848193 110.20142,41.129302 66.336027,56.609588 42.282389,65.098228 18.935759,83.98786 5.6304377,105.7262 c -11.9407142,19.50878 -17.7652807,39.97836 -17.7652807,62.43333 0,31.8181 12.14796694,61.07136 34.744851,83.66822 9.447258,9.44727 17.042701,15.00203 29.554313,21.61393 3.743734,1.97845 6.500479,3.59131 6.126103,3.58419 -0.374375,-0.008 -3.99979,-1.51006 -8.05646,-3.33984 z"
       id="path21"
       inkscape:connector-curvature="0"
       sodipodi:nodetypes="csccccscssscccscsscsssccccssscccssssssccsscssccsssssccsssscccccscsssssccssscsscsscccc" />
  </g>
</svg>
